<?xml version="1.0" encoding="UTF-8" standalone="no"?>
<!-- Generator: Adobe Illustrator 16.0.0, SVG Export Plug-In . SVG Version: 6.00 Build 0)  -->

<svg
   xmlns:dc="http://purl.org/dc/elements/1.1/"
   xmlns:cc="http://creativecommons.org/ns#"
   xmlns:rdf="http://www.w3.org/1999/02/22-rdf-syntax-ns#"
   xmlns:svg="http://www.w3.org/2000/svg"
   xmlns="http://www.w3.org/2000/svg"
   xmlns:sodipodi="http://sodipodi.sourceforge.net/DTD/sodipodi-0.dtd"
   xmlns:inkscape="http://www.inkscape.org/namespaces/inkscape"
   version="1.1"
   id="Ebene_1"
   x="0px"
   y="0px"
   width="155.906px"
   height="155.905px"
   viewBox="0 0 155.906 155.905"
   enable-background="new 0 0 155.906 155.905"
   xml:space="preserve"
   sodipodi:docname="Logo_SDS_favicon_template_colour.svg"
   inkscape:export-filename="/home/clemens/sds/sdsbrowser/inst/sds_logo/normal/Logo_SDS_colour_300dpi.png"
   inkscape:export-xdpi="300"
   inkscape:export-ydpi="300"
   inkscape:version="0.92.2 2405546, 2018-03-11"><metadata
   id="metadata179"><rdf:RDF><cc:Work
       rdf:about=""><dc:format>image/svg+xml</dc:format><dc:type
         rdf:resource="http://purl.org/dc/dcmitype/StillImage" /></cc:Work></rdf:RDF></metadata><defs
   id="defs177" /><sodipodi:namedview
   pagecolor="#ffffff"
   bordercolor="#666666"
   borderopacity="1"
   objecttolerance="10"
   gridtolerance="10"
   guidetolerance="10"
   inkscape:pageopacity="0"
   inkscape:pageshadow="2"
   inkscape:window-width="1920"
   inkscape:window-height="1157"
   id="namedview175"
   showgrid="false"
   inkscape:zoom="3.0274847"
   inkscape:cx="35.283375"
   inkscape:cy="66.292155"
   inkscape:window-x="0"
   inkscape:window-y="25"
   inkscape:window-maximized="1"
   inkscape:current-layer="Ebene_1"
   inkscape:snap-bbox="true"
   inkscape:snap-bbox-midpoints="true"
   inkscape:snap-object-midpoints="true"
   inkscape:snap-global="false" />









<circle
   style="fill:#ffffff;stroke-width:0.86168385"
   id="path24"
   cx="78.939751"
   cy="81.936684"
   r="68.934715" /><polyline
   fill="none"
   stroke="#181716"
   stroke-width="0.9921"
   stroke-miterlimit="10"
   points="131.273,108.007 135.429,110.483   78.333,143.551 21.145,110.633 25.114,108.34 "
   id="polyline138" />
<polyline
   fill="none"
   stroke="#181716"
   stroke-width="0.9921"
   stroke-miterlimit="10"
   points="131.138,103.512 135.077,105.777   77.981,138.846 20.793,105.926 25.119,103.427 "
   id="polyline140" />
<polyline
   fill="none"
   stroke="#181716"
   stroke-width="0.9921"
   stroke-miterlimit="10"
   points="130.82,98.421 135.429,101.073   78.333,134.14 21.145,101.223 25.159,98.904 "
   id="polyline142" />
<polyline
   fill="none"
   stroke="#181716"
   stroke-width="1.5591"
   stroke-miterlimit="10"
   points="96.791,74.047 135.077,96.085   77.981,129.152 20.793,96.235 59.681,73.768 "
   id="polyline144" />
<g
   id="g148">
	<path
   fill="#A51F2B"
   d="M43.393,97.801c0.471,0.286,1.362,0.589,2.102,0.589c0.908,0,1.313-0.37,1.313-0.908   c0-0.555-0.337-0.841-1.346-1.193c-1.598-0.556-2.271-1.43-2.253-2.388c0-1.446,1.193-2.573,3.094-2.573   c0.908,0,1.698,0.235,2.169,0.487l-0.403,1.463c-0.354-0.201-1.009-0.471-1.732-0.471c-0.739,0-1.143,0.354-1.143,0.857   c0,0.521,0.387,0.774,1.429,1.144c1.479,0.538,2.169,1.295,2.187,2.506c0,1.479-1.161,2.556-3.33,2.556   c-0.992,0-1.883-0.235-2.488-0.571L43.393,97.801z"
   id="path146" />
</g>
<g
   id="g152">
	<path
   fill="#A51F2B"
   d="M108.032,97.798c0.471,0.286,1.362,0.589,2.102,0.589c0.908,0,1.312-0.37,1.312-0.908   c0-0.555-0.337-0.841-1.345-1.193c-1.598-0.556-2.27-1.43-2.252-2.388c0-1.446,1.193-2.573,3.093-2.573   c0.908,0,1.698,0.235,2.169,0.487l-0.403,1.463c-0.354-0.201-1.009-0.471-1.732-0.471c-0.739,0-1.142,0.354-1.142,0.857   c0,0.521,0.387,0.774,1.428,1.144c1.479,0.538,2.169,1.295,2.187,2.506c0,1.479-1.161,2.556-3.33,2.556   c-0.992,0-1.883-0.235-2.488-0.571L108.032,97.798z"
   id="path150" />
</g>
<g
   id="g156">
	<path
   fill="#A51F2B"
   d="M74.549,110.608c0.659-0.106,1.518-0.165,2.424-0.165c1.506,0,2.482,0.271,3.247,0.848   c0.823,0.611,1.341,1.588,1.341,2.987c0,1.518-0.553,2.565-1.317,3.212c-0.836,0.694-2.106,1.023-3.659,1.023   c-0.929,0-1.588-0.059-2.035-0.117V110.608z M76.349,117.079c0.153,0.035,0.4,0.035,0.624,0.035   c1.623,0.012,2.682-0.883,2.682-2.776c0.012-1.647-0.952-2.518-2.493-2.518c-0.4,0-0.659,0.035-0.813,0.07V117.079z"
   id="path154" />
</g>
<g
   id="g172">
	<g
   id="g170">
		<path
   fill="none"
   stroke="#A51F2B"
   stroke-width="1.4173"
   stroke-miterlimit="10"
   d="M80.307,18.399    c-2.127,0-3.2,1.311-4.204,1.479c-1.003,0.168-3.21-0.215-4.484,1.372c-1.275,1.586-4.516,16.059-4.516,16.059    s-6.697,20.82-7.155,23.305c-0.421,2.287-0.226,22.749-0.226,22.749s0.113,3.619,1.451,5.133c1.129,1.275,0.894,3.794,0.78,5.688    c-0.11,1.896,0.63,6.411,1.669,7.657c2.521,0.546,8.095,3.512,13.596,0.709c4.781-1.877,5.885-0.487,8.197-0.294    c4.982,0.415,8.358-0.262,9.134-1.868c0.773-1.607,2.074-13.907,2.074-13.907s-0.205-20.776-0.619-25.239    c-0.416-4.463-1.291-4.806-1.395-8.905c-0.074-2.906,0.277-3.027-0.244-5.326C93.734,44.226,82.875,18.399,80.307,18.399z"
   id="path158" />
		<path
   fill="none"
   stroke="#A51F2B"
   stroke-width="1.4173"
   stroke-miterlimit="10"
   d="M59.523,66.851c0,0,1.819-3.219,4.162-3.219    c7.616,0.076,5.904,11.129,16.646,10.586c5.709-0.289,4.41,2.9,6.771,3.241c3.27,0.182,3.399-17.462,3.399-17.462    s1.661-18.992-1.765-26.775"
   id="path160" />
		<path
   fill="none"
   stroke="#A51F2B"
   stroke-width="1.4173"
   stroke-miterlimit="10"
   d="M64.505,85.528    c0,0,12.781-5.253,14.582-5.501c2.283-0.314,2.49,3.736,4.773,2.491c1.031-0.563,0.104-8.044,0.104-8.044"
   id="path162" />
		<path
   fill="none"
   stroke="#A51F2B"
   stroke-width="1.4173"
   stroke-miterlimit="10"
   d="M62.571,97.757c0,0,1.672-1.337,2.006-3.79    c0.334-2.452,0.81-13.836-4.367-14.42"
   id="path164" />
		<path
   fill="none"
   stroke="#A51F2B"
   stroke-width="1.4173"
   stroke-miterlimit="10"
   d="M64.452,94.765    c3.27-1.297,4.472-0.865,4.256,1.66c-0.297,3.464-2.431,6.037-2.431,6.037"
   id="path166" />
		<path
   fill="none"
   stroke="#A51F2B"
   stroke-width="1.4173"
   stroke-miterlimit="10"
   d="M85.157,75.85c0,0,3.373,5.684,6.486,4.49    c2.998-1.148,4.523,9.979,4.523,9.979"
   id="path168" />
	</g>
</g>
</svg>