<?xml version="1.0" encoding="utf-8"?>
<!-- Generator: Adobe Illustrator 16.0.0, SVG Export Plug-In . SVG Version: 6.00 Build 0)  -->
<!DOCTYPE svg PUBLIC "-//W3C//DTD SVG 1.1//EN" "http://www.w3.org/Graphics/SVG/1.1/DTD/svg11.dtd">
<svg version="1.1" id="Ebene_1" xmlns="http://www.w3.org/2000/svg" xmlns:xlink="http://www.w3.org/1999/xlink" x="0px" y="0px"
	 width="155.906px" height="155.905px" viewBox="0 0 155.906 155.905" enable-background="new 0 0 155.906 155.905"
	 xml:space="preserve">
<polyline fill="none" stroke="#191817" stroke-width="0.9921" stroke-miterlimit="10" points="118.992,106.874 123.148,109.35 
	66.045,142.418 8.856,109.5 12.826,107.207 "/>
<polyline fill="none" stroke="#191817" stroke-width="0.9921" stroke-miterlimit="10" points="118.857,102.378 122.796,104.644 
	65.693,137.712 8.505,104.792 12.831,102.293 "/>
<polyline fill="none" stroke="#191817" stroke-width="0.9921" stroke-miterlimit="10" points="118.539,97.288 123.148,99.94 
	66.045,133.006 8.856,100.089 12.871,97.771 "/>
<polyline fill="none" stroke="#191817" stroke-width="1.5591" stroke-miterlimit="10" points="84.503,72.914 122.796,94.952 
	65.693,128.019 8.505,95.102 47.393,72.634 "/>
<g>
	<path fill="#A6212C" d="M31.105,96.668c0.471,0.286,1.362,0.589,2.102,0.589c0.908,0,1.313-0.37,1.313-0.908
		c0-0.555-0.337-0.841-1.346-1.193c-1.598-0.556-2.271-1.43-2.253-2.388c0-1.446,1.193-2.573,3.094-2.573
		c0.908,0,1.698,0.235,2.169,0.487l-0.403,1.463c-0.354-0.201-1.009-0.471-1.732-0.471c-0.739,0-1.143,0.354-1.143,0.857
		c0,0.521,0.387,0.774,1.429,1.144c1.479,0.538,2.169,1.295,2.187,2.506c0,1.479-1.161,2.556-3.33,2.556
		c-0.992,0-1.883-0.235-2.488-0.571L31.105,96.668z"/>
</g>
<g>
	<path fill="#A6212C" d="M95.746,96.665c0.471,0.286,1.362,0.589,2.102,0.589c0.908,0,1.313-0.37,1.313-0.908
		c0-0.555-0.337-0.841-1.346-1.193c-1.598-0.556-2.271-1.43-2.253-2.388c0-1.446,1.193-2.573,3.094-2.573
		c0.908,0,1.698,0.235,2.169,0.487l-0.403,1.463c-0.354-0.201-1.009-0.471-1.732-0.471c-0.739,0-1.143,0.354-1.143,0.857
		c0,0.521,0.387,0.774,1.429,1.144c1.479,0.538,2.169,1.295,2.187,2.506c0,1.479-1.161,2.556-3.33,2.556
		c-0.992,0-1.883-0.235-2.488-0.571L95.746,96.665z"/>
</g>
<g>
	<path fill="#A6212C" d="M62.261,109.476c0.659-0.106,1.518-0.165,2.424-0.165c1.506,0,2.482,0.271,3.247,0.848
		c0.823,0.611,1.341,1.588,1.341,2.987c0,1.518-0.553,2.565-1.317,3.212c-0.836,0.694-2.106,1.023-3.659,1.023
		c-0.929,0-1.588-0.059-2.035-0.117V109.476z M64.061,115.946c0.153,0.035,0.4,0.035,0.624,0.035
		c1.623,0.012,2.682-0.883,2.682-2.776c0.012-1.647-0.952-2.518-2.493-2.518c-0.4,0-0.659,0.035-0.813,0.07V115.946z"/>
</g>
<g>
	<g>
		<path fill="none" stroke="#A6212C" stroke-width="1.4173" stroke-miterlimit="10" d="M68.019,17.266
			c-2.127,0-3.2,1.311-4.204,1.479c-1.003,0.168-3.21-0.215-4.484,1.372c-1.275,1.586-4.516,16.059-4.516,16.059
			s-6.697,20.82-7.155,23.305c-0.421,2.287-0.226,22.749-0.226,22.749s0.113,3.619,1.451,5.133c1.129,1.275,0.894,3.794,0.78,5.688
			c-0.11,1.896,0.63,6.411,1.669,7.657c2.521,0.546,8.095,3.512,13.596,0.709c4.781-1.877,5.885-0.487,8.197-0.294
			c4.982,0.415,8.359-0.262,9.134-1.868c0.774-1.607,2.075-13.907,2.075-13.907S84.13,64.57,83.716,60.107
			c-0.416-4.463-1.291-4.806-1.394-8.905c-0.074-2.906,0.276-3.027-0.245-5.326C81.446,43.092,70.587,17.266,68.019,17.266z"/>
		<path fill="none" stroke="#A6212C" stroke-width="1.4173" stroke-miterlimit="10" d="M47.235,65.717c0,0,1.819-3.219,4.162-3.219
			c7.616,0.076,5.904,11.129,16.646,10.586c5.709-0.289,4.41,2.9,6.771,3.241c3.27,0.182,3.399-17.462,3.399-17.462
			s1.66-18.992-1.765-26.775"/>
		<path fill="none" stroke="#A6212C" stroke-width="1.4173" stroke-miterlimit="10" d="M52.217,84.395
			c0,0,12.781-5.253,14.582-5.501c2.283-0.314,2.49,3.736,4.773,2.491c1.031-0.563,0.104-8.044,0.104-8.044"/>
		<path fill="none" stroke="#A6212C" stroke-width="1.4173" stroke-miterlimit="10" d="M50.283,96.624c0,0,1.672-1.337,2.006-3.79
			c0.334-2.452,0.81-13.836-4.367-14.42"/>
		<path fill="none" stroke="#A6212C" stroke-width="1.4173" stroke-miterlimit="10" d="M52.164,93.631
			c3.27-1.297,4.472-0.865,4.256,1.66c-0.297,3.464-2.431,6.037-2.431,6.037"/>
		<path fill="none" stroke="#A6212C" stroke-width="1.4173" stroke-miterlimit="10" d="M72.869,74.716c0,0,3.373,5.684,6.486,4.49
			c2.997-1.148,4.523,9.979,4.523,9.979"/>
	</g>
</g>
<g>
	<path fill="#191817" d="M92.3,29.714c-0.054,0.065-0.098,0.106-0.132,0.125c-0.033,0.018-0.074,0.027-0.123,0.027
		c-0.095,0.001-0.172-0.031-0.229-0.095c-0.059-0.064-0.088-0.169-0.088-0.317l-0.002-0.419c0-0.15,0.028-0.258,0.086-0.322
		c0.058-0.063,0.135-0.096,0.229-0.097c0.073,0,0.135,0.02,0.185,0.058c0.049,0.039,0.087,0.104,0.114,0.192
		c0.026,0.09,0.054,0.151,0.082,0.184c0.06,0.063,0.164,0.127,0.314,0.191s0.314,0.096,0.492,0.095
		c0.278-0.001,0.506-0.065,0.685-0.196c0.112-0.079,0.169-0.177,0.169-0.292c-0.001-0.077-0.028-0.149-0.083-0.218
		c-0.055-0.067-0.145-0.124-0.269-0.167c-0.081-0.031-0.263-0.071-0.544-0.123c-0.341-0.062-0.599-0.137-0.773-0.227
		c-0.174-0.088-0.313-0.214-0.414-0.375c-0.103-0.162-0.153-0.337-0.154-0.525c-0.001-0.298,0.123-0.56,0.371-0.784
		c0.249-0.225,0.572-0.338,0.972-0.339c0.16-0.001,0.309,0.016,0.445,0.051c0.138,0.036,0.263,0.089,0.374,0.162
		c0.081-0.08,0.161-0.119,0.242-0.119c0.091,0,0.167,0.03,0.225,0.095c0.058,0.063,0.087,0.17,0.088,0.317l0.001,0.469
		c0.001,0.149-0.028,0.257-0.085,0.32c-0.058,0.063-0.133,0.097-0.224,0.097c-0.077,0-0.144-0.023-0.201-0.069
		c-0.044-0.034-0.078-0.103-0.101-0.206s-0.052-0.178-0.086-0.223c-0.06-0.076-0.147-0.141-0.265-0.193
		c-0.119-0.052-0.255-0.078-0.409-0.077c-0.225,0-0.402,0.054-0.532,0.158c-0.131,0.105-0.195,0.214-0.195,0.327
		c0,0.077,0.027,0.151,0.082,0.224c0.054,0.072,0.132,0.127,0.235,0.168c0.069,0.028,0.264,0.073,0.583,0.135
		s0.564,0.13,0.736,0.204c0.172,0.075,0.314,0.191,0.429,0.352c0.113,0.16,0.171,0.35,0.172,0.57
		c0.001,0.309-0.107,0.556-0.323,0.74c-0.286,0.244-0.653,0.367-1.1,0.368c-0.172,0.001-0.34-0.02-0.503-0.06
		C92.613,29.858,92.454,29.796,92.3,29.714z"/>
	<path fill="#191817" d="M96.6,29.836l-1.087-2.112c-0.101-0.012-0.178-0.046-0.231-0.104c-0.053-0.056-0.079-0.124-0.079-0.205
		c-0.001-0.094,0.031-0.169,0.095-0.228c0.063-0.058,0.171-0.087,0.32-0.088l0.569-0.002c0.149,0,0.257,0.028,0.32,0.086
		s0.096,0.133,0.097,0.227c0,0.091-0.032,0.165-0.096,0.224c-0.063,0.058-0.164,0.087-0.302,0.087l0.741,1.431l0.725-1.436
		c-0.134,0.001-0.232-0.027-0.298-0.085c-0.063-0.059-0.096-0.133-0.096-0.226c-0.001-0.092,0.031-0.167,0.095-0.225
		c0.064-0.058,0.171-0.087,0.321-0.088l0.587-0.002c0.147,0,0.254,0.028,0.317,0.086c0.064,0.058,0.096,0.133,0.097,0.227
		c0,0.083-0.027,0.153-0.082,0.211c-0.054,0.058-0.135,0.092-0.242,0.1l-1.42,2.82c0.156-0.001,0.258,0.015,0.307,0.045
		c0.099,0.062,0.147,0.151,0.147,0.267c0.001,0.091-0.031,0.166-0.095,0.225c-0.064,0.058-0.171,0.087-0.321,0.088l-1.359,0.004
		c-0.149,0.001-0.257-0.028-0.32-0.086c-0.063-0.057-0.096-0.132-0.097-0.223c0-0.094,0.032-0.169,0.096-0.228
		c0.063-0.058,0.17-0.087,0.319-0.088l0.621-0.002L96.6,29.836z"/>
	<path fill="#191817" d="M101.351,27.811c-0.102-0.063-0.208-0.109-0.319-0.141s-0.229-0.046-0.351-0.046
		c-0.241,0.001-0.432,0.041-0.574,0.121c-0.063,0.034-0.094,0.071-0.094,0.112c0,0.047,0.044,0.092,0.129,0.137
		c0.064,0.032,0.21,0.063,0.435,0.092c0.413,0.057,0.701,0.112,0.864,0.168c0.213,0.075,0.377,0.186,0.494,0.333
		c0.115,0.147,0.174,0.304,0.174,0.468c0.001,0.223-0.097,0.409-0.293,0.561c-0.281,0.218-0.646,0.327-1.097,0.329
		c-0.181,0-0.347-0.015-0.5-0.046s-0.294-0.076-0.421-0.137c-0.03,0.026-0.063,0.047-0.098,0.061
		c-0.034,0.015-0.07,0.022-0.106,0.022c-0.098,0-0.175-0.032-0.232-0.095c-0.059-0.064-0.088-0.171-0.088-0.321l-0.001-0.209
		c-0.001-0.15,0.028-0.258,0.086-0.321c0.058-0.064,0.132-0.097,0.226-0.097c0.075-0.001,0.139,0.02,0.189,0.062
		c0.051,0.041,0.09,0.113,0.118,0.214c0.097,0.08,0.211,0.142,0.345,0.184c0.134,0.04,0.288,0.061,0.462,0.06
		c0.286-0.001,0.508-0.046,0.666-0.136c0.075-0.045,0.111-0.092,0.111-0.141c0-0.081-0.054-0.147-0.161-0.199
		c-0.108-0.053-0.33-0.097-0.666-0.132c-0.501-0.051-0.836-0.151-1.005-0.301c-0.168-0.147-0.253-0.33-0.254-0.547
		c0-0.223,0.093-0.408,0.28-0.558c0.256-0.202,0.589-0.306,1.003-0.307c0.144,0,0.282,0.013,0.415,0.04
		c0.134,0.026,0.261,0.068,0.382,0.124c0.039-0.028,0.075-0.05,0.108-0.063c0.033-0.015,0.064-0.021,0.093-0.021
		c0.085-0.001,0.156,0.031,0.213,0.095s0.086,0.171,0.086,0.321l0.001,0.151c0,0.136-0.017,0.229-0.049,0.277
		c-0.063,0.093-0.152,0.14-0.264,0.141c-0.074,0-0.141-0.023-0.197-0.07C101.404,27.949,101.366,27.888,101.351,27.811z"/>
	<path fill="#191817" d="M104.26,27.694l0.004,1.25c0,0.134,0.028,0.222,0.083,0.265c0.085,0.065,0.237,0.099,0.456,0.098
		c0.318-0.001,0.612-0.069,0.882-0.206c0.103-0.053,0.184-0.08,0.242-0.08c0.081,0,0.151,0.03,0.212,0.09
		c0.061,0.062,0.09,0.135,0.09,0.223c0.001,0.081-0.031,0.15-0.096,0.209c-0.1,0.097-0.295,0.185-0.588,0.266
		s-0.539,0.122-0.74,0.123c-0.387,0.001-0.678-0.082-0.871-0.248c-0.194-0.166-0.292-0.372-0.293-0.615l-0.004-1.371l-0.226,0.001
		c-0.149,0-0.257-0.027-0.321-0.085c-0.064-0.059-0.096-0.134-0.096-0.227c-0.001-0.092,0.03-0.166,0.095-0.224
		c0.063-0.058,0.171-0.088,0.32-0.088l0.226-0.001l-0.002-0.563c-0.001-0.15,0.027-0.257,0.085-0.32
		c0.058-0.065,0.133-0.098,0.226-0.098c0.092,0,0.166,0.031,0.225,0.096c0.058,0.063,0.087,0.17,0.088,0.32l0.002,0.563l1.152-0.004
		c0.15-0.001,0.257,0.028,0.32,0.086c0.064,0.058,0.097,0.132,0.098,0.226c0,0.091-0.032,0.166-0.097,0.225
		c-0.063,0.058-0.169,0.086-0.319,0.087L104.26,27.694z"/>
	<path fill="#191817" d="M109.716,28.749l-2.556,0.009c0.065,0.162,0.181,0.292,0.347,0.392c0.165,0.099,0.389,0.146,0.671,0.146
		c0.23,0,0.537-0.05,0.92-0.151c0.158-0.041,0.268-0.062,0.328-0.062c0.083,0,0.153,0.029,0.21,0.087
		c0.057,0.059,0.085,0.133,0.086,0.222c0,0.081-0.03,0.15-0.091,0.207c-0.08,0.076-0.278,0.147-0.592,0.217
		c-0.314,0.069-0.615,0.104-0.905,0.105c-0.499,0.001-0.897-0.138-1.197-0.419s-0.451-0.627-0.453-1.039
		c-0.001-0.438,0.16-0.794,0.482-1.069c0.322-0.276,0.694-0.415,1.115-0.416c0.254-0.001,0.486,0.043,0.698,0.131
		c0.212,0.089,0.369,0.185,0.474,0.288c0.146,0.148,0.268,0.334,0.363,0.555c0.065,0.153,0.099,0.332,0.099,0.534L109.716,28.749z
		 M109.023,28.129c-0.095-0.179-0.221-0.312-0.374-0.398c-0.153-0.089-0.338-0.132-0.551-0.131c-0.211,0-0.393,0.045-0.547,0.135
		c-0.153,0.088-0.278,0.222-0.376,0.4L109.023,28.129z"/>
	<path fill="#191817" d="M110.921,27.049v0.177c0.102-0.1,0.193-0.169,0.275-0.207c0.081-0.037,0.176-0.056,0.283-0.057
		c0.091,0,0.181,0.022,0.271,0.065c0.089,0.045,0.176,0.111,0.262,0.2c0.107-0.09,0.216-0.155,0.326-0.2
		c0.109-0.044,0.223-0.066,0.338-0.066c0.231-0.001,0.42,0.061,0.563,0.184c0.191,0.162,0.287,0.374,0.288,0.638l0.005,1.396
		c0.13,0,0.226,0.028,0.289,0.087c0.063,0.059,0.095,0.134,0.095,0.225c0,0.092-0.03,0.166-0.093,0.224
		c-0.063,0.058-0.169,0.088-0.319,0.088l-0.593,0.002l-0.007-1.967c0-0.096-0.018-0.161-0.052-0.198
		c-0.034-0.035-0.088-0.054-0.159-0.054c-0.069,0-0.132,0.019-0.19,0.056c-0.075,0.051-0.166,0.146-0.272,0.287l0.004,1.256
		c0.129-0.001,0.226,0.028,0.288,0.087c0.063,0.058,0.096,0.133,0.096,0.224c0,0.092-0.03,0.166-0.094,0.225
		c-0.063,0.058-0.169,0.087-0.319,0.088l-0.593,0.002l-0.007-1.967c0-0.094-0.018-0.159-0.053-0.196
		c-0.035-0.038-0.09-0.057-0.161-0.057c-0.072,0.001-0.144,0.024-0.215,0.069c-0.07,0.046-0.156,0.138-0.254,0.273l0.004,1.256
		c0.13,0,0.227,0.028,0.29,0.087c0.064,0.059,0.097,0.134,0.097,0.225c0,0.092-0.03,0.166-0.095,0.224
		c-0.063,0.058-0.171,0.088-0.32,0.088l-0.563,0.002c-0.15,0.001-0.257-0.028-0.321-0.086c-0.063-0.058-0.097-0.132-0.097-0.226
		c0-0.091,0.03-0.166,0.094-0.225c0.063-0.058,0.16-0.086,0.292-0.087l-0.005-1.515c-0.132,0.001-0.229-0.028-0.293-0.087
		s-0.095-0.133-0.095-0.224c-0.001-0.092,0.031-0.167,0.095-0.225c0.064-0.058,0.171-0.087,0.321-0.088L110.921,27.049z"/>
	<path fill="#191817" d="M115.928,27.032l0.007,2.138l0.748-0.003c0.15,0,0.257,0.028,0.321,0.085
		c0.063,0.059,0.097,0.134,0.097,0.227c0,0.092-0.031,0.166-0.095,0.224c-0.064,0.059-0.171,0.088-0.321,0.088l-2.119,0.008
		c-0.15,0-0.257-0.028-0.32-0.086c-0.064-0.058-0.097-0.133-0.097-0.227c0-0.091,0.03-0.165,0.095-0.224
		c0.063-0.058,0.17-0.087,0.32-0.087l0.748-0.003l-0.005-1.515l-0.502,0.002c-0.147,0-0.254-0.027-0.32-0.085
		c-0.064-0.059-0.097-0.134-0.097-0.227c-0.001-0.092,0.03-0.166,0.095-0.224c0.063-0.058,0.171-0.088,0.32-0.088L115.928,27.032z
		 M115.839,25.85l0.002,0.659l-0.742,0.003l-0.002-0.659L115.839,25.85z"/>
	<path fill="#191817" d="M120.031,27.748c-0.102-0.063-0.208-0.108-0.319-0.141c-0.111-0.031-0.229-0.046-0.351-0.046
		c-0.241,0.001-0.432,0.042-0.574,0.121c-0.063,0.034-0.094,0.072-0.094,0.113c0,0.047,0.044,0.091,0.129,0.136
		c0.064,0.032,0.21,0.063,0.435,0.093c0.413,0.056,0.701,0.111,0.864,0.168c0.213,0.074,0.377,0.185,0.494,0.332
		c0.115,0.148,0.174,0.304,0.174,0.468c0.001,0.223-0.097,0.41-0.293,0.561c-0.281,0.218-0.646,0.328-1.097,0.329
		c-0.181,0.001-0.347-0.015-0.5-0.046s-0.294-0.076-0.421-0.137c-0.03,0.026-0.063,0.048-0.098,0.062
		c-0.034,0.015-0.07,0.021-0.106,0.021c-0.098,0-0.175-0.031-0.232-0.095c-0.059-0.064-0.088-0.171-0.088-0.321l-0.001-0.209
		c-0.001-0.15,0.028-0.258,0.086-0.321s0.132-0.097,0.226-0.097c0.075,0,0.139,0.021,0.189,0.062s0.09,0.113,0.118,0.214
		c0.097,0.081,0.211,0.142,0.345,0.184c0.134,0.04,0.288,0.061,0.462,0.06c0.286-0.001,0.508-0.045,0.666-0.136
		c0.075-0.044,0.111-0.091,0.111-0.14c0-0.081-0.054-0.147-0.161-0.2c-0.108-0.052-0.33-0.097-0.666-0.132
		c-0.501-0.051-0.836-0.151-1.005-0.301c-0.168-0.147-0.253-0.329-0.254-0.546c0-0.223,0.093-0.409,0.28-0.558
		c0.256-0.203,0.589-0.306,1.003-0.308c0.144,0,0.282,0.013,0.415,0.04c0.134,0.026,0.261,0.068,0.382,0.125
		c0.039-0.029,0.075-0.051,0.108-0.064c0.033-0.015,0.064-0.021,0.093-0.021c0.085,0,0.156,0.031,0.213,0.095
		s0.086,0.171,0.086,0.321l0.001,0.151c0,0.136-0.017,0.229-0.049,0.277c-0.063,0.093-0.152,0.141-0.264,0.141
		c-0.074,0-0.141-0.023-0.197-0.069C120.085,27.887,120.047,27.825,120.031,27.748z"/>
	<path fill="#191817" d="M124.063,27.117c0.075-0.07,0.152-0.106,0.231-0.107c0.089,0,0.162,0.032,0.22,0.096
		c0.058,0.064,0.088,0.169,0.088,0.317l0.001,0.401c0.001,0.149-0.028,0.257-0.085,0.32c-0.058,0.063-0.133,0.094-0.227,0.094
		c-0.085,0.001-0.157-0.023-0.216-0.072c-0.043-0.036-0.077-0.11-0.101-0.223c-0.025-0.112-0.085-0.195-0.178-0.25
		c-0.164-0.097-0.375-0.146-0.63-0.145c-0.294,0.001-0.529,0.088-0.706,0.262c-0.177,0.172-0.265,0.391-0.264,0.654
		c0,0.243,0.086,0.435,0.258,0.575c0.17,0.141,0.453,0.21,0.848,0.209c0.26-0.001,0.472-0.028,0.636-0.081
		c0.098-0.034,0.189-0.089,0.275-0.167c0.088-0.079,0.167-0.118,0.237-0.118c0.085,0,0.159,0.03,0.221,0.094
		c0.063,0.063,0.094,0.137,0.094,0.222c0.001,0.138-0.094,0.269-0.282,0.394c-0.278,0.185-0.688,0.278-1.227,0.28
		c-0.485,0.002-0.862-0.098-1.133-0.297c-0.365-0.269-0.549-0.637-0.55-1.105c-0.002-0.443,0.145-0.812,0.44-1.104
		c0.295-0.292,0.68-0.438,1.156-0.44c0.172,0,0.332,0.016,0.48,0.048C123.801,27.005,123.938,27.054,124.063,27.117z"/>
	<path fill="#191817" d="M126.182,25.815l0.004,1.328c0.13-0.076,0.261-0.135,0.394-0.172c0.132-0.039,0.266-0.058,0.401-0.059
		c0.215,0,0.407,0.035,0.576,0.107c0.168,0.073,0.308,0.188,0.419,0.344c0.11,0.157,0.167,0.354,0.168,0.594l0.004,1.171
		c0.158,0,0.261,0.014,0.31,0.044c0.098,0.063,0.147,0.152,0.147,0.268c0,0.092-0.03,0.166-0.094,0.224
		c-0.063,0.058-0.169,0.088-0.319,0.088l-0.711,0.003c-0.148,0-0.254-0.029-0.318-0.086c-0.063-0.058-0.097-0.133-0.097-0.227
		c0-0.113,0.048-0.201,0.146-0.265c0.051-0.033,0.153-0.048,0.31-0.047l-0.004-1.128c0-0.16-0.037-0.271-0.11-0.337
		c-0.095-0.087-0.237-0.13-0.424-0.13c-0.138,0.001-0.259,0.028-0.365,0.083c-0.106,0.054-0.25,0.17-0.429,0.349l0.004,1.168
		c0.16-0.001,0.264,0.014,0.31,0.044c0.1,0.063,0.15,0.151,0.15,0.267c0,0.092-0.031,0.167-0.095,0.225
		c-0.064,0.058-0.171,0.087-0.321,0.088l-0.708,0.002c-0.15,0.001-0.257-0.028-0.321-0.086c-0.063-0.057-0.097-0.132-0.097-0.226
		c0-0.113,0.049-0.201,0.148-0.266c0.049-0.032,0.152-0.047,0.31-0.046l-0.009-2.697h-0.106c-0.149,0.001-0.257-0.027-0.321-0.085
		c-0.063-0.058-0.096-0.133-0.096-0.227c-0.001-0.091,0.031-0.165,0.095-0.223c0.063-0.06,0.171-0.088,0.32-0.089L126.182,25.815z"
		/>
	<path fill="#191817" d="M132.134,28.675l-2.557,0.008c0.065,0.162,0.181,0.293,0.347,0.392c0.165,0.1,0.389,0.147,0.671,0.146
		c0.23-0.001,0.538-0.051,0.921-0.151c0.158-0.042,0.268-0.062,0.328-0.062c0.083-0.001,0.153,0.028,0.21,0.087
		s0.085,0.133,0.086,0.222c0,0.081-0.03,0.15-0.091,0.207c-0.08,0.075-0.278,0.147-0.592,0.216
		c-0.314,0.069-0.616,0.104-0.906,0.105c-0.499,0.002-0.897-0.138-1.197-0.419s-0.451-0.626-0.453-1.038
		c-0.001-0.438,0.16-0.795,0.482-1.07s0.694-0.414,1.115-0.416c0.254-0.001,0.486,0.044,0.699,0.132
		c0.212,0.088,0.369,0.185,0.474,0.287c0.146,0.149,0.268,0.334,0.363,0.555c0.065,0.154,0.099,0.333,0.099,0.535L132.134,28.675z
		 M131.441,28.054c-0.095-0.179-0.221-0.311-0.375-0.398c-0.153-0.088-0.338-0.131-0.551-0.131
		c-0.211,0.001-0.393,0.046-0.547,0.135c-0.153,0.089-0.278,0.222-0.376,0.4L131.441,28.054z"/>
	<path fill="#191817" d="M94.551,34.576l0.007,2.138c0.132,0,0.229,0.028,0.293,0.087c0.063,0.059,0.095,0.134,0.095,0.225
		c0.001,0.092-0.031,0.166-0.096,0.224c-0.063,0.058-0.169,0.088-0.319,0.088l-0.593,0.002l-0.001-0.143
		c-0.179,0.082-0.348,0.143-0.51,0.184s-0.316,0.063-0.462,0.063c-0.205,0.001-0.383-0.041-0.533-0.128
		c-0.15-0.085-0.269-0.204-0.357-0.355c-0.063-0.108-0.095-0.246-0.095-0.41l-0.005-1.341h-0.106
		c-0.15,0.001-0.257-0.027-0.321-0.085c-0.063-0.059-0.097-0.133-0.097-0.226c0-0.092,0.032-0.167,0.095-0.225
		c0.064-0.058,0.171-0.087,0.321-0.088l0.729-0.002l0.006,1.854c0.001,0.132,0.033,0.229,0.097,0.29
		c0.065,0.062,0.163,0.092,0.295,0.091c0.125,0,0.261-0.025,0.404-0.075c0.146-0.051,0.324-0.14,0.537-0.271l-0.005-1.271
		l-0.226,0.001c-0.149,0-0.257-0.027-0.32-0.085c-0.063-0.059-0.097-0.134-0.097-0.227c0-0.092,0.032-0.166,0.095-0.224
		c0.063-0.058,0.171-0.088,0.32-0.088L94.551,34.576z"/>
	<path fill="#191817" d="M96.332,34.57l0.001,0.21c0.112-0.098,0.238-0.172,0.375-0.22c0.137-0.05,0.285-0.074,0.445-0.075
		c0.369-0.001,0.66,0.112,0.876,0.341c0.172,0.183,0.257,0.42,0.258,0.717l0.004,1.158c0.132,0,0.229,0.027,0.293,0.085
		c0.063,0.059,0.094,0.134,0.094,0.227c0.001,0.092-0.03,0.166-0.095,0.224c-0.063,0.058-0.17,0.088-0.319,0.088l-0.563,0.002
		c-0.15,0.001-0.258-0.028-0.322-0.086c-0.063-0.057-0.096-0.132-0.097-0.226c0-0.091,0.032-0.165,0.095-0.225
		c0.062-0.058,0.159-0.086,0.291-0.087l-0.004-1.177c0-0.136-0.037-0.235-0.11-0.297c-0.096-0.081-0.238-0.121-0.429-0.121
		c-0.145,0.001-0.271,0.029-0.379,0.085c-0.108,0.057-0.245,0.175-0.411,0.356l0.004,1.158c0.16-0.001,0.264,0.014,0.312,0.044
		c0.099,0.062,0.148,0.149,0.148,0.267c0.001,0.092-0.03,0.166-0.095,0.225c-0.063,0.058-0.17,0.087-0.319,0.088l-0.709,0.002
		c-0.149,0.001-0.258-0.028-0.321-0.086c-0.064-0.058-0.096-0.132-0.097-0.226c0-0.113,0.049-0.202,0.146-0.266
		c0.048-0.03,0.152-0.045,0.313-0.046l-0.005-1.515c-0.132,0-0.229-0.028-0.292-0.087s-0.095-0.134-0.095-0.225
		c0-0.092,0.031-0.166,0.095-0.224s0.17-0.088,0.32-0.088L96.332,34.57z"/>
	<path fill="#191817" d="M102.126,33.368l0.011,3.32h0.106c0.148-0.001,0.255,0.027,0.32,0.085c0.064,0.058,0.098,0.133,0.098,0.226
		c0.001,0.092-0.031,0.166-0.095,0.225c-0.064,0.058-0.17,0.087-0.32,0.088l-0.729,0.002l-0.001-0.152
		c-0.142,0.084-0.29,0.147-0.444,0.19c-0.155,0.043-0.316,0.065-0.482,0.065c-0.468,0.002-0.846-0.133-1.133-0.402
		c-0.286-0.27-0.431-0.605-0.432-1.009c-0.001-0.422,0.147-0.782,0.446-1.081c0.299-0.3,0.665-0.449,1.097-0.451
		c0.162,0,0.321,0.023,0.478,0.073c0.155,0.049,0.31,0.123,0.463,0.222l-0.003-0.775l-0.106,0.001c-0.15,0-0.257-0.028-0.321-0.086
		c-0.063-0.058-0.097-0.132-0.097-0.223c0-0.094,0.032-0.169,0.095-0.227c0.064-0.06,0.171-0.088,0.321-0.088L102.126,33.368z
		 M101.512,36.016c-0.001-0.258-0.093-0.475-0.272-0.653c-0.182-0.177-0.402-0.266-0.664-0.266c-0.26,0.001-0.479,0.092-0.659,0.271
		s-0.27,0.395-0.269,0.646c0.001,0.229,0.082,0.416,0.245,0.563c0.162,0.146,0.393,0.218,0.688,0.217
		c0.294-0.001,0.522-0.074,0.687-0.222C101.431,36.424,101.513,36.238,101.512,36.016z"/>
	<path fill="#191817" d="M94.679,40.865l0.011,3.32l0.106-0.001c0.148,0,0.255,0.027,0.319,0.085
		c0.064,0.059,0.099,0.134,0.099,0.227c0,0.092-0.032,0.166-0.095,0.224c-0.064,0.058-0.171,0.088-0.321,0.088l-0.729,0.003
		l-0.001-0.152c-0.141,0.083-0.289,0.147-0.444,0.189c-0.155,0.044-0.316,0.065-0.482,0.066c-0.468,0.001-0.845-0.133-1.132-0.402
		s-0.431-0.606-0.433-1.01c-0.001-0.422,0.148-0.781,0.447-1.08c0.299-0.3,0.664-0.45,1.096-0.451
		c0.162-0.001,0.321,0.023,0.479,0.072c0.155,0.05,0.31,0.123,0.462,0.223l-0.002-0.775h-0.106c-0.15,0.001-0.257-0.027-0.322-0.086
		c-0.063-0.058-0.096-0.131-0.096-0.222c-0.001-0.094,0.031-0.17,0.095-0.228c0.064-0.059,0.171-0.087,0.321-0.088L94.679,40.865z
		 M94.064,43.513c-0.001-0.258-0.093-0.476-0.273-0.653s-0.402-0.267-0.664-0.266c-0.26,0.001-0.479,0.092-0.659,0.27
		c-0.179,0.18-0.269,0.395-0.268,0.646c0,0.229,0.082,0.417,0.244,0.563c0.163,0.146,0.393,0.219,0.688,0.218
		c0.294-0.001,0.523-0.075,0.687-0.222C93.983,43.92,94.064,43.735,94.064,43.513z"/>
	<path fill="#191817" d="M97.297,42.039l0.007,2.138l0.748-0.003c0.15,0,0.257,0.027,0.321,0.085
		c0.063,0.059,0.097,0.134,0.097,0.227c0,0.092-0.032,0.166-0.095,0.224c-0.064,0.058-0.171,0.088-0.321,0.088l-2.119,0.007
		c-0.15,0.001-0.257-0.028-0.32-0.086c-0.065-0.057-0.097-0.132-0.097-0.226c0-0.091,0.03-0.165,0.095-0.225
		c0.063-0.058,0.17-0.086,0.32-0.087l0.748-0.002l-0.005-1.515l-0.502,0.002c-0.147,0-0.254-0.028-0.32-0.085
		c-0.064-0.059-0.097-0.134-0.097-0.227c-0.001-0.092,0.03-0.166,0.095-0.224c0.063-0.059,0.171-0.088,0.32-0.088L97.297,42.039z
		 M97.208,40.856l0.002,0.659l-0.742,0.003l-0.002-0.659L97.208,40.856z"/>
	<path fill="#191817" d="M101.41,42.211v-0.186l0.73-0.003c0.149,0,0.257,0.028,0.32,0.086s0.096,0.133,0.097,0.227
		c0,0.091-0.032,0.165-0.096,0.224c-0.063,0.058-0.17,0.087-0.319,0.087l-0.106,0.001l0.007,2.269
		c0.001,0.219-0.045,0.41-0.137,0.573s-0.232,0.305-0.422,0.422c-0.191,0.118-0.406,0.179-0.645,0.18l-0.706,0.002
		c-0.149,0.001-0.257-0.028-0.32-0.086c-0.064-0.058-0.096-0.133-0.097-0.224c0-0.094,0.031-0.169,0.096-0.227
		c0.063-0.058,0.17-0.087,0.319-0.088l0.688-0.002c0.19-0.001,0.338-0.053,0.443-0.156c0.104-0.104,0.157-0.234,0.156-0.393
		l-0.001-0.304c-0.137,0.089-0.277,0.156-0.42,0.201c-0.143,0.046-0.289,0.068-0.439,0.069c-0.424,0.001-0.778-0.14-1.065-0.422
		c-0.286-0.281-0.431-0.63-0.433-1.045c-0.001-0.418,0.142-0.77,0.426-1.053c0.285-0.284,0.639-0.426,1.063-0.427
		c0.158-0.001,0.309,0.021,0.452,0.066S101.28,42.117,101.41,42.211z M101.411,43.405c-0.001-0.229-0.085-0.427-0.256-0.595
		c-0.169-0.168-0.373-0.251-0.61-0.25c-0.237,0-0.439,0.085-0.608,0.254s-0.253,0.368-0.252,0.597
		c0.001,0.231,0.086,0.43,0.256,0.597s0.373,0.249,0.61,0.249c0.237-0.001,0.44-0.085,0.608-0.253
		C101.329,43.836,101.412,43.637,101.411,43.405z"/>
	<path fill="#191817" d="M104.77,42.014l0.007,2.138l0.748-0.002c0.15-0.001,0.257,0.027,0.321,0.085
		c0.063,0.058,0.097,0.133,0.097,0.226c0,0.092-0.032,0.166-0.095,0.225c-0.064,0.058-0.171,0.087-0.321,0.088l-2.119,0.007
		c-0.15,0-0.257-0.028-0.32-0.086c-0.065-0.058-0.097-0.133-0.097-0.227c0-0.091,0.03-0.165,0.095-0.224
		c0.063-0.058,0.17-0.087,0.32-0.087l0.748-0.003l-0.005-1.515l-0.502,0.002c-0.147,0.001-0.254-0.027-0.32-0.085
		c-0.064-0.059-0.097-0.134-0.097-0.227c-0.001-0.092,0.03-0.166,0.095-0.224c0.063-0.058,0.171-0.087,0.32-0.088L104.77,42.014z
		 M104.681,40.831l0.002,0.66l-0.742,0.002l-0.002-0.659L104.681,40.831z"/>
	<path fill="#191817" d="M108.046,42.626l0.004,1.25c0,0.134,0.028,0.222,0.083,0.265c0.085,0.065,0.237,0.099,0.456,0.098
		c0.317-0.001,0.611-0.069,0.881-0.206c0.103-0.053,0.184-0.079,0.242-0.08c0.081,0,0.151,0.03,0.212,0.091s0.09,0.134,0.09,0.222
		c0.001,0.081-0.031,0.15-0.096,0.21c-0.1,0.096-0.295,0.185-0.588,0.266s-0.539,0.122-0.739,0.122
		c-0.387,0.002-0.678-0.081-0.872-0.248c-0.193-0.166-0.291-0.372-0.292-0.615l-0.004-1.371l-0.226,0.001
		c-0.149,0-0.257-0.027-0.321-0.085c-0.064-0.059-0.096-0.134-0.096-0.227c-0.001-0.092,0.03-0.166,0.095-0.224
		c0.063-0.058,0.171-0.088,0.32-0.088l0.226-0.001l-0.002-0.563c-0.001-0.15,0.027-0.257,0.085-0.32
		c0.058-0.064,0.133-0.098,0.226-0.098c0.092,0,0.166,0.032,0.225,0.096c0.058,0.063,0.087,0.17,0.088,0.32l0.002,0.563l1.151-0.004
		c0.15,0,0.257,0.028,0.32,0.086c0.064,0.058,0.097,0.133,0.098,0.227c0,0.091-0.032,0.165-0.097,0.224
		c-0.063,0.058-0.169,0.087-0.319,0.087L108.046,42.626z"/>
	<path fill="#191817" d="M112.503,44.749l-0.001-0.146c-0.155,0.083-0.328,0.146-0.517,0.188s-0.359,0.063-0.514,0.063
		c-0.334,0.002-0.605-0.087-0.815-0.264c-0.209-0.176-0.314-0.372-0.315-0.587c0-0.262,0.133-0.504,0.398-0.729
		c0.265-0.225,0.634-0.338,1.104-0.34c0.188-0.001,0.406,0.02,0.654,0.06l-0.001-0.149c0-0.093-0.04-0.169-0.12-0.229
		c-0.08-0.058-0.233-0.087-0.459-0.086c-0.185,0-0.423,0.038-0.717,0.111c-0.109,0.027-0.194,0.041-0.255,0.041
		c-0.083,0-0.153-0.029-0.212-0.089s-0.087-0.137-0.087-0.229c0-0.053,0.009-0.099,0.029-0.137c0.021-0.039,0.049-0.069,0.085-0.093
		s0.112-0.053,0.228-0.085c0.154-0.043,0.312-0.077,0.471-0.104c0.16-0.025,0.305-0.039,0.435-0.039
		c0.388-0.001,0.688,0.082,0.902,0.248c0.215,0.166,0.322,0.395,0.323,0.685l0.005,1.283l0.106-0.001
		c0.149,0,0.257,0.028,0.32,0.085c0.064,0.059,0.097,0.134,0.097,0.227c0,0.092-0.031,0.166-0.095,0.224
		c-0.063,0.059-0.171,0.088-0.32,0.088L112.503,44.749z M112.499,43.633c-0.25-0.047-0.479-0.071-0.69-0.07
		c-0.254,0.001-0.472,0.063-0.652,0.188c-0.114,0.08-0.171,0.16-0.171,0.241c0.001,0.059,0.028,0.105,0.083,0.143
		c0.102,0.065,0.24,0.1,0.417,0.099c0.149,0,0.319-0.03,0.509-0.09s0.357-0.141,0.506-0.242L112.499,43.633z"/>
	<path fill="#191817" d="M115.977,40.794l0.011,3.32l0.748-0.003c0.15,0,0.257,0.028,0.321,0.085
		c0.063,0.059,0.097,0.134,0.097,0.227c0,0.092-0.032,0.166-0.095,0.224c-0.064,0.059-0.171,0.088-0.321,0.088l-2.119,0.008
		c-0.149,0-0.257-0.028-0.32-0.086c-0.065-0.058-0.097-0.133-0.097-0.227c0-0.091,0.03-0.165,0.095-0.224
		c0.063-0.058,0.171-0.087,0.32-0.087l0.748-0.003l-0.009-2.697l-0.502,0.002c-0.147,0-0.254-0.027-0.32-0.086
		c-0.064-0.058-0.097-0.133-0.097-0.227c-0.001-0.091,0.031-0.165,0.095-0.223c0.063-0.059,0.171-0.088,0.32-0.088L115.977,40.794z"
		/>
	<path fill="#191817" d="M120.975,43.656l-2.557,0.009c0.065,0.161,0.181,0.292,0.347,0.392c0.165,0.099,0.389,0.146,0.671,0.146
		c0.23-0.001,0.538-0.051,0.921-0.151c0.158-0.041,0.267-0.062,0.327-0.062c0.083,0,0.154,0.028,0.211,0.087
		s0.085,0.133,0.086,0.222c0,0.081-0.03,0.15-0.091,0.207c-0.08,0.076-0.278,0.147-0.592,0.216
		c-0.314,0.069-0.616,0.104-0.906,0.105c-0.499,0.002-0.897-0.138-1.197-0.419s-0.451-0.626-0.453-1.038
		c-0.001-0.438,0.16-0.795,0.482-1.07s0.694-0.414,1.115-0.415c0.254-0.001,0.486,0.043,0.699,0.131
		c0.212,0.088,0.369,0.185,0.474,0.288c0.146,0.148,0.268,0.334,0.363,0.554c0.065,0.154,0.099,0.333,0.099,0.535L120.975,43.656z
		 M120.282,43.035c-0.095-0.178-0.221-0.311-0.375-0.397c-0.153-0.089-0.338-0.132-0.551-0.132
		c-0.211,0.001-0.393,0.046-0.547,0.135c-0.153,0.089-0.278,0.222-0.376,0.401L120.282,43.035z"/>
	<path fill="#191817" d="M92.641,50.749l0.003,0.915l1.59-0.006l-0.001-0.338c0-0.149,0.028-0.257,0.086-0.32
		c0.058-0.064,0.133-0.097,0.227-0.097c0.091,0,0.166,0.031,0.224,0.095s0.087,0.171,0.087,0.32l0.003,0.961l-2.934,0.01
		c-0.15,0.001-0.257-0.028-0.321-0.086c-0.063-0.058-0.096-0.132-0.097-0.226c0-0.091,0.033-0.166,0.098-0.225
		c0.063-0.058,0.17-0.086,0.318-0.087h0.098l-0.008-2.438h-0.098c-0.15,0.001-0.257-0.028-0.321-0.086
		c-0.063-0.058-0.097-0.132-0.097-0.226c0-0.093,0.031-0.17,0.095-0.228c0.064-0.057,0.171-0.086,0.321-0.087l2.797-0.005
		l0.003,0.947c0.001,0.147-0.027,0.254-0.084,0.317c-0.057,0.064-0.131,0.096-0.224,0.097c-0.094,0-0.17-0.031-0.228-0.094
		s-0.087-0.168-0.088-0.318l-0.001-0.325l-1.453,0.005l0.003,0.899l0.547-0.002c0-0.162,0.015-0.267,0.045-0.313
		c0.063-0.101,0.152-0.15,0.268-0.15c0.091-0.001,0.166,0.031,0.224,0.095c0.058,0.064,0.087,0.171,0.088,0.321l0.002,0.717
		c0.001,0.136-0.016,0.228-0.048,0.274c-0.064,0.095-0.151,0.143-0.261,0.144c-0.115,0-0.205-0.05-0.269-0.148
		c-0.03-0.046-0.046-0.151-0.047-0.315L92.641,50.749z"/>
	<path fill="#191817" d="M96.884,49.512l0.001,0.39c0.262-0.19,0.467-0.315,0.617-0.38c0.151-0.063,0.293-0.095,0.425-0.095
		c0.202-0.001,0.399,0.073,0.591,0.223c0.13,0.101,0.194,0.204,0.195,0.31c0,0.089-0.031,0.165-0.093,0.227
		c-0.061,0.062-0.135,0.094-0.223,0.094c-0.077,0-0.158-0.038-0.244-0.115c-0.085-0.076-0.161-0.115-0.228-0.114
		c-0.088,0-0.218,0.055-0.391,0.165s-0.389,0.275-0.647,0.495l0.003,0.939l0.888-0.003c0.15,0,0.257,0.027,0.322,0.085
		c0.063,0.059,0.096,0.134,0.096,0.227c0.001,0.092-0.031,0.166-0.095,0.224c-0.064,0.058-0.171,0.088-0.321,0.088l-1.882,0.007
		c-0.15,0-0.257-0.029-0.321-0.086c-0.063-0.058-0.096-0.133-0.097-0.227c0-0.091,0.032-0.165,0.096-0.224s0.17-0.087,0.32-0.087
		l0.371-0.002l-0.005-1.515l-0.226,0.001c-0.149,0.001-0.257-0.027-0.32-0.085c-0.064-0.059-0.097-0.134-0.097-0.227
		c0-0.092,0.031-0.166,0.095-0.224s0.171-0.087,0.32-0.088L96.884,49.512z"/>
	<path fill="#191817" d="M100.747,50.122l0.005,1.515l0.888-0.003c0.149-0.001,0.257,0.027,0.321,0.085
		c0.064,0.059,0.096,0.134,0.096,0.227c0.001,0.092-0.03,0.166-0.095,0.224c-0.063,0.058-0.171,0.087-0.32,0.088l-1.883,0.006
		c-0.149,0.001-0.257-0.028-0.32-0.086c-0.063-0.057-0.096-0.132-0.097-0.226c0-0.091,0.032-0.165,0.096-0.224
		c0.063-0.059,0.17-0.087,0.319-0.088l0.371-0.001l-0.005-1.515l-0.298,0.001c-0.149,0.001-0.257-0.027-0.32-0.085
		c-0.064-0.059-0.097-0.133-0.097-0.226c0-0.092,0.031-0.167,0.095-0.225s0.171-0.087,0.32-0.088l0.298-0.001l-0.001-0.237
		c-0.001-0.271,0.102-0.497,0.304-0.677c0.203-0.18,0.498-0.271,0.886-0.271c0.172-0.001,0.371,0.015,0.598,0.045
		c0.226,0.03,0.37,0.074,0.436,0.132c0.063,0.056,0.096,0.128,0.096,0.217c0.001,0.095-0.027,0.173-0.084,0.233
		c-0.057,0.06-0.127,0.09-0.21,0.09c-0.039,0-0.097-0.006-0.174-0.021c-0.257-0.05-0.485-0.075-0.684-0.074
		c-0.207,0.001-0.35,0.032-0.428,0.095c-0.077,0.062-0.115,0.139-0.115,0.229l0.001,0.237l0.96-0.003
		c0.15-0.001,0.258,0.028,0.321,0.086c0.064,0.057,0.097,0.132,0.097,0.226c0,0.091-0.031,0.165-0.095,0.225
		c-0.063,0.058-0.171,0.086-0.321,0.087L100.747,50.122z"/>
	<path fill="#191817" d="M105.056,52.245V52.1c-0.156,0.084-0.329,0.146-0.517,0.188c-0.188,0.043-0.359,0.063-0.514,0.064
		c-0.334,0.001-0.605-0.087-0.815-0.264s-0.314-0.372-0.315-0.587c-0.001-0.262,0.132-0.505,0.397-0.73
		c0.266-0.225,0.634-0.338,1.104-0.339c0.188-0.001,0.406,0.019,0.654,0.059v-0.149c0-0.093-0.041-0.169-0.121-0.228
		s-0.232-0.087-0.458-0.087c-0.185,0.001-0.424,0.039-0.718,0.112c-0.109,0.026-0.194,0.04-0.255,0.041
		c-0.083,0-0.153-0.03-0.212-0.09c-0.058-0.059-0.086-0.136-0.087-0.229c0-0.053,0.01-0.099,0.03-0.137
		c0.021-0.04,0.049-0.07,0.085-0.094c0.035-0.023,0.111-0.052,0.227-0.085c0.154-0.042,0.312-0.077,0.472-0.103
		c0.16-0.026,0.305-0.039,0.435-0.04c0.388-0.001,0.688,0.082,0.902,0.248c0.214,0.167,0.322,0.395,0.323,0.685l0.004,1.283h0.106
		c0.149-0.001,0.257,0.027,0.321,0.085c0.064,0.059,0.096,0.133,0.096,0.226c0.001,0.092-0.03,0.167-0.095,0.225
		c-0.063,0.058-0.171,0.087-0.32,0.088L105.056,52.245z M105.053,51.129c-0.251-0.047-0.48-0.07-0.691-0.069
		c-0.254,0.001-0.471,0.063-0.652,0.188c-0.114,0.079-0.17,0.16-0.17,0.241c0,0.059,0.027,0.104,0.082,0.142
		c0.103,0.066,0.241,0.1,0.418,0.1c0.149-0.001,0.319-0.03,0.508-0.091c0.189-0.06,0.358-0.14,0.507-0.242L105.053,51.129z"/>
	<path fill="#191817" d="M108.897,50.201c-0.103-0.062-0.208-0.108-0.319-0.141c-0.111-0.03-0.229-0.046-0.35-0.045
		c-0.241,0-0.433,0.041-0.575,0.12c-0.063,0.035-0.093,0.072-0.093,0.113c0,0.047,0.043,0.092,0.128,0.136
		c0.064,0.032,0.21,0.063,0.435,0.093c0.414,0.056,0.701,0.111,0.863,0.168c0.213,0.074,0.378,0.186,0.494,0.332
		c0.116,0.148,0.174,0.305,0.175,0.469c0.001,0.223-0.098,0.409-0.293,0.561c-0.282,0.218-0.646,0.327-1.096,0.328
		c-0.181,0.001-0.347-0.014-0.5-0.046c-0.153-0.03-0.295-0.076-0.422-0.136c-0.03,0.026-0.063,0.047-0.098,0.061
		c-0.034,0.015-0.07,0.021-0.106,0.021c-0.098,0.001-0.175-0.031-0.232-0.095c-0.058-0.064-0.087-0.171-0.088-0.321l-0.001-0.209
		c0-0.15,0.028-0.258,0.086-0.321s0.133-0.096,0.227-0.097c0.075,0,0.138,0.021,0.188,0.063c0.051,0.04,0.09,0.112,0.119,0.213
		c0.096,0.081,0.21,0.142,0.344,0.184c0.135,0.041,0.289,0.061,0.463,0.06c0.286-0.001,0.507-0.045,0.664-0.136
		c0.075-0.044,0.112-0.091,0.112-0.14c-0.001-0.081-0.055-0.147-0.162-0.2c-0.107-0.052-0.328-0.097-0.664-0.131
		c-0.502-0.052-0.837-0.152-1.005-0.302c-0.169-0.146-0.254-0.329-0.254-0.546c-0.001-0.223,0.092-0.408,0.28-0.558
		c0.255-0.203,0.589-0.306,1.003-0.307c0.144-0.001,0.282,0.013,0.415,0.039c0.132,0.027,0.259,0.068,0.38,0.125
		c0.039-0.028,0.075-0.05,0.108-0.064s0.064-0.021,0.093-0.021c0.085,0,0.156,0.032,0.213,0.095
		c0.058,0.063,0.086,0.171,0.086,0.321l0.001,0.151c0,0.136-0.016,0.229-0.048,0.277c-0.064,0.093-0.153,0.141-0.265,0.141
		c-0.074,0-0.141-0.022-0.197-0.069S108.913,50.278,108.897,50.201z"/>
	<path fill="#191817" d="M112.634,50.188c-0.103-0.062-0.209-0.108-0.32-0.14s-0.229-0.047-0.35-0.046
		c-0.241,0.001-0.433,0.041-0.575,0.121c-0.063,0.034-0.093,0.071-0.093,0.112c0,0.047,0.043,0.092,0.128,0.137
		c0.064,0.031,0.21,0.063,0.435,0.092c0.414,0.057,0.702,0.112,0.864,0.168c0.213,0.074,0.378,0.186,0.494,0.333
		s0.174,0.304,0.175,0.468c0.001,0.223-0.098,0.409-0.293,0.561c-0.282,0.218-0.646,0.327-1.097,0.329
		c-0.181,0-0.347-0.015-0.5-0.047c-0.153-0.03-0.295-0.076-0.422-0.136c-0.03,0.026-0.063,0.047-0.098,0.061
		c-0.034,0.015-0.07,0.021-0.106,0.021c-0.098,0.001-0.175-0.031-0.232-0.095c-0.058-0.064-0.087-0.17-0.088-0.32l-0.001-0.209
		c0-0.15,0.028-0.259,0.086-0.322s0.133-0.096,0.227-0.096c0.075-0.001,0.138,0.02,0.188,0.062c0.051,0.041,0.09,0.113,0.119,0.213
		c0.096,0.081,0.21,0.143,0.344,0.184c0.135,0.041,0.289,0.061,0.463,0.061c0.286-0.001,0.508-0.046,0.665-0.137
		c0.075-0.044,0.112-0.091,0.112-0.14c-0.001-0.081-0.055-0.147-0.162-0.199c-0.107-0.053-0.329-0.097-0.665-0.132
		c-0.502-0.051-0.837-0.151-1.005-0.302c-0.169-0.146-0.254-0.329-0.254-0.546c-0.001-0.223,0.092-0.408,0.28-0.558
		c0.255-0.203,0.589-0.306,1.003-0.307c0.144-0.001,0.282,0.013,0.415,0.039c0.133,0.027,0.26,0.068,0.381,0.125
		c0.039-0.028,0.075-0.05,0.108-0.063c0.033-0.015,0.064-0.022,0.093-0.022c0.085,0,0.156,0.032,0.213,0.096
		c0.058,0.063,0.086,0.17,0.086,0.32l0.001,0.151c0,0.136-0.016,0.229-0.048,0.278c-0.064,0.093-0.153,0.14-0.265,0.14
		c-0.074,0.001-0.141-0.022-0.197-0.069S112.649,50.266,112.634,50.188z"/>
	<path fill="#191817" d="M117.018,49.445l0.007,2.138c0.132-0.001,0.229,0.028,0.293,0.087c0.063,0.058,0.095,0.133,0.095,0.224
		c0.001,0.092-0.031,0.166-0.096,0.225c-0.063,0.058-0.17,0.087-0.32,0.088l-0.593,0.002v-0.143
		c-0.179,0.081-0.349,0.143-0.51,0.183c-0.162,0.042-0.316,0.063-0.462,0.063c-0.205,0.001-0.383-0.042-0.533-0.128
		s-0.269-0.204-0.357-0.355c-0.063-0.109-0.095-0.247-0.095-0.411l-0.005-1.341l-0.106,0.001c-0.15,0-0.257-0.027-0.321-0.085
		c-0.063-0.059-0.097-0.134-0.097-0.227c0-0.092,0.032-0.166,0.095-0.224c0.064-0.058,0.171-0.088,0.321-0.088l0.729-0.003
		l0.006,1.854c0.001,0.132,0.033,0.229,0.097,0.291c0.065,0.062,0.163,0.091,0.295,0.091c0.125-0.001,0.261-0.025,0.404-0.076
		c0.146-0.05,0.324-0.14,0.537-0.27l-0.005-1.271h-0.226c-0.149,0.001-0.257-0.027-0.32-0.084c-0.063-0.059-0.097-0.134-0.097-0.227
		c0-0.092,0.032-0.166,0.095-0.224c0.063-0.059,0.171-0.088,0.32-0.089L117.018,49.445z"/>
	<path fill="#191817" d="M118.799,49.438l0.001,0.21c0.112-0.098,0.238-0.171,0.375-0.22s0.285-0.074,0.445-0.074
		c0.369-0.002,0.66,0.111,0.876,0.341c0.172,0.182,0.257,0.42,0.258,0.717l0.004,1.158c0.132-0.001,0.229,0.027,0.293,0.085
		c0.063,0.059,0.094,0.133,0.094,0.226c0.001,0.092-0.03,0.167-0.095,0.225c-0.063,0.058-0.171,0.087-0.32,0.088l-0.563,0.002
		c-0.15,0-0.257-0.028-0.321-0.086c-0.063-0.058-0.096-0.133-0.097-0.227c0-0.091,0.032-0.165,0.095-0.224
		c0.062-0.058,0.159-0.087,0.291-0.087l-0.004-1.177c0-0.136-0.037-0.235-0.11-0.298c-0.096-0.08-0.238-0.121-0.429-0.12
		c-0.145,0-0.271,0.029-0.379,0.085s-0.245,0.175-0.411,0.355l0.004,1.158c0.16,0,0.264,0.015,0.311,0.044
		c0.1,0.062,0.149,0.15,0.149,0.268c0.001,0.092-0.03,0.166-0.095,0.224c-0.063,0.058-0.171,0.088-0.32,0.088l-0.709,0.003
		c-0.149,0-0.257-0.028-0.32-0.086c-0.064-0.058-0.096-0.133-0.097-0.227c0-0.113,0.049-0.201,0.145-0.265
		c0.049-0.031,0.153-0.046,0.313-0.046l-0.005-1.515c-0.132,0-0.229-0.029-0.292-0.087c-0.063-0.059-0.095-0.134-0.095-0.225
		c0-0.092,0.031-0.166,0.095-0.224c0.063-0.059,0.17-0.088,0.32-0.089L118.799,49.438z"/>
	<path fill="#191817" d="M123.853,49.607l-0.001-0.186l0.73-0.002c0.149-0.001,0.257,0.028,0.32,0.086
		c0.064,0.057,0.097,0.132,0.097,0.226c0,0.091-0.031,0.165-0.095,0.225c-0.063,0.058-0.171,0.086-0.32,0.087h-0.106l0.008,2.269
		c0.001,0.219-0.046,0.41-0.137,0.574c-0.093,0.163-0.232,0.304-0.423,0.422s-0.405,0.178-0.644,0.179l-0.706,0.003
		c-0.149,0-0.257-0.029-0.32-0.086c-0.065-0.058-0.097-0.133-0.097-0.224c0-0.094,0.03-0.169,0.095-0.227
		c0.063-0.059,0.171-0.088,0.32-0.088l0.688-0.003c0.19,0,0.338-0.053,0.442-0.155c0.105-0.104,0.157-0.235,0.157-0.394
		l-0.001-0.304c-0.138,0.09-0.278,0.156-0.42,0.202c-0.143,0.045-0.289,0.068-0.439,0.068c-0.424,0.002-0.779-0.139-1.066-0.421
		c-0.286-0.281-0.431-0.631-0.432-1.046c-0.002-0.418,0.141-0.769,0.425-1.052c0.285-0.284,0.64-0.426,1.063-0.428
		c0.158,0,0.309,0.021,0.452,0.067C123.586,49.445,123.722,49.515,123.853,49.607z M123.854,50.802
		c-0.001-0.229-0.086-0.426-0.256-0.595c-0.17-0.167-0.373-0.251-0.61-0.25s-0.44,0.086-0.608,0.254
		c-0.17,0.17-0.253,0.368-0.252,0.597c0.001,0.231,0.085,0.431,0.256,0.597c0.169,0.168,0.373,0.25,0.61,0.249
		s0.439-0.084,0.608-0.253C123.771,51.233,123.854,51.033,123.854,50.802z"/>
	<path fill="#191817" d="M93.313,59l0.668-1.383c-0.166,0.001-0.272-0.013-0.319-0.041c-0.103-0.063-0.153-0.152-0.153-0.27
		c-0.001-0.092,0.031-0.166,0.095-0.225c0.064-0.058,0.171-0.087,0.321-0.088l0.854-0.003c0.149,0,0.257,0.029,0.32,0.086
		c0.064,0.058,0.096,0.133,0.097,0.227c0,0.091-0.031,0.165-0.096,0.224c-0.063,0.059-0.17,0.087-0.319,0.087l-0.104,0.001
		l-1.036,2.141l-0.65,0.003l-1.05-2.135h-0.088c-0.15,0.001-0.258-0.027-0.322-0.084c-0.063-0.059-0.096-0.134-0.096-0.227
		c-0.001-0.092,0.031-0.166,0.095-0.224c0.063-0.059,0.171-0.088,0.321-0.089l0.836-0.002c0.147-0.001,0.254,0.028,0.317,0.085
		c0.063,0.058,0.096,0.133,0.097,0.227c0,0.115-0.049,0.203-0.145,0.266c-0.049,0.03-0.157,0.045-0.325,0.046L93.313,59z"/>
	<path fill="#191817" d="M98.662,58.41c0.001,0.239-0.064,0.472-0.196,0.696c-0.132,0.224-0.329,0.403-0.591,0.537
		c-0.263,0.134-0.536,0.201-0.822,0.202c-0.284,0.001-0.556-0.063-0.815-0.193c-0.26-0.131-0.458-0.308-0.595-0.531
		c-0.137-0.226-0.205-0.461-0.206-0.706c0-0.249,0.067-0.494,0.204-0.734c0.138-0.241,0.335-0.431,0.593-0.569
		c0.258-0.138,0.527-0.208,0.81-0.209c0.283-0.001,0.557,0.068,0.82,0.208c0.263,0.141,0.462,0.329,0.597,0.567
		C98.595,57.914,98.662,58.159,98.662,58.41z M98.039,58.416c0-0.201-0.073-0.385-0.217-0.553c-0.198-0.227-0.457-0.339-0.777-0.338
		c-0.282,0.001-0.516,0.092-0.704,0.272c-0.188,0.182-0.281,0.391-0.281,0.628c0.001,0.194,0.098,0.376,0.288,0.545
		c0.191,0.168,0.426,0.252,0.703,0.251c0.279-0.001,0.515-0.086,0.704-0.256C97.945,58.796,98.04,58.612,98.039,58.416z"/>
	<path fill="#191817" d="M100.145,56.974v0.21c0.113-0.098,0.239-0.172,0.376-0.22c0.136-0.05,0.284-0.074,0.444-0.075
		c0.369-0.001,0.661,0.112,0.876,0.341c0.172,0.183,0.258,0.42,0.259,0.717l0.004,1.158c0.132,0,0.229,0.028,0.292,0.086
		s0.095,0.133,0.095,0.226c0,0.092-0.031,0.166-0.095,0.225c-0.063,0.058-0.171,0.087-0.32,0.088l-0.563,0.002
		c-0.15,0-0.257-0.029-0.321-0.086c-0.064-0.058-0.097-0.133-0.097-0.227c0-0.091,0.031-0.165,0.094-0.224s0.16-0.087,0.292-0.087
		l-0.004-1.177c-0.001-0.136-0.038-0.235-0.11-0.298c-0.096-0.081-0.239-0.121-0.43-0.121c-0.145,0.001-0.271,0.029-0.378,0.086
		c-0.108,0.056-0.246,0.175-0.411,0.355l0.004,1.158c0.16,0,0.264,0.014,0.311,0.044c0.099,0.062,0.148,0.15,0.149,0.268
		c0,0.092-0.031,0.166-0.095,0.224s-0.171,0.087-0.32,0.088l-0.709,0.002c-0.149,0.001-0.257-0.028-0.32-0.085
		c-0.065-0.058-0.097-0.133-0.097-0.227c-0.001-0.113,0.048-0.201,0.145-0.266c0.049-0.03,0.153-0.045,0.313-0.046l-0.005-1.515
		c-0.132,0.001-0.229-0.028-0.293-0.087c-0.063-0.059-0.094-0.133-0.094-0.224c-0.001-0.092,0.03-0.167,0.095-0.225
		c0.063-0.058,0.17-0.087,0.32-0.088L100.145,56.974z"/>
	<path fill="#191817" d="M92.426,67.074c-0.055,0.065-0.099,0.106-0.133,0.125c-0.033,0.018-0.074,0.027-0.123,0.027
		c-0.095,0.001-0.172-0.031-0.229-0.095c-0.058-0.064-0.088-0.169-0.088-0.317l-0.001-0.419c-0.001-0.15,0.028-0.258,0.085-0.322
		c0.058-0.063,0.135-0.096,0.229-0.097c0.073,0,0.135,0.02,0.185,0.058c0.049,0.039,0.088,0.104,0.114,0.192
		c0.026,0.09,0.055,0.151,0.083,0.184c0.06,0.063,0.163,0.127,0.313,0.191c0.151,0.064,0.315,0.096,0.493,0.095
		c0.278-0.001,0.505-0.065,0.684-0.196c0.113-0.079,0.169-0.177,0.169-0.292c0-0.078-0.028-0.149-0.083-0.218
		c-0.055-0.067-0.144-0.124-0.268-0.167c-0.081-0.031-0.264-0.071-0.545-0.123c-0.341-0.062-0.598-0.137-0.773-0.227
		c-0.174-0.088-0.312-0.214-0.414-0.375c-0.102-0.162-0.153-0.337-0.154-0.525c-0.001-0.298,0.123-0.56,0.372-0.784
		c0.248-0.225,0.572-0.338,0.972-0.339c0.16-0.001,0.309,0.016,0.445,0.051c0.138,0.036,0.262,0.089,0.373,0.162
		c0.081-0.08,0.162-0.119,0.243-0.119c0.091,0,0.166,0.03,0.224,0.095c0.058,0.063,0.088,0.17,0.088,0.317l0.002,0.469
		c0,0.149-0.028,0.257-0.086,0.32s-0.133,0.097-0.224,0.097c-0.077,0-0.144-0.023-0.201-0.069c-0.044-0.034-0.077-0.103-0.101-0.206
		c-0.022-0.104-0.051-0.178-0.085-0.223c-0.061-0.076-0.148-0.141-0.266-0.193c-0.118-0.052-0.254-0.078-0.408-0.077
		c-0.225,0-0.402,0.054-0.533,0.158c-0.13,0.105-0.195,0.214-0.195,0.327c0.001,0.077,0.028,0.151,0.082,0.224
		s0.133,0.127,0.236,0.168c0.069,0.028,0.263,0.073,0.582,0.135s0.565,0.13,0.737,0.204c0.171,0.075,0.313,0.191,0.428,0.352
		s0.171,0.35,0.172,0.57c0.001,0.309-0.106,0.556-0.323,0.74c-0.286,0.244-0.652,0.367-1.099,0.368
		c-0.172,0.001-0.34-0.02-0.503-0.06C92.738,67.219,92.579,67.156,92.426,67.074z"/>
	<path fill="#191817" d="M96.912,65.079l0.004,1.25c0.001,0.134,0.028,0.222,0.083,0.265c0.086,0.066,0.238,0.099,0.457,0.098
		c0.318-0.001,0.611-0.069,0.881-0.206c0.104-0.053,0.185-0.079,0.243-0.079c0.081-0.001,0.151,0.029,0.211,0.09
		c0.061,0.062,0.09,0.135,0.091,0.223c0,0.081-0.032,0.15-0.097,0.209c-0.099,0.096-0.295,0.185-0.588,0.266
		c-0.292,0.081-0.538,0.122-0.739,0.122c-0.387,0.002-0.679-0.081-0.872-0.248c-0.194-0.166-0.291-0.372-0.292-0.615l-0.005-1.371
		l-0.226,0.001c-0.149,0.001-0.257-0.027-0.32-0.085c-0.064-0.059-0.097-0.133-0.097-0.226c0-0.092,0.031-0.167,0.095-0.225
		s0.171-0.087,0.32-0.088l0.226-0.001l-0.002-0.563c0-0.15,0.027-0.257,0.085-0.32c0.059-0.064,0.134-0.097,0.227-0.098
		c0.092,0,0.166,0.032,0.224,0.097c0.058,0.063,0.088,0.169,0.088,0.319l0.002,0.563l1.152-0.004c0.15,0,0.257,0.028,0.32,0.086
		c0.065,0.058,0.098,0.133,0.098,0.227c0,0.091-0.031,0.165-0.096,0.224c-0.063,0.058-0.17,0.087-0.32,0.087L96.912,65.079z"/>
	<path fill="#191817" d="M102.37,66.135l-2.557,0.008c0.064,0.162,0.181,0.293,0.346,0.392c0.165,0.1,0.39,0.147,0.672,0.146
		c0.23-0.001,0.537-0.051,0.92-0.151c0.158-0.042,0.268-0.062,0.328-0.062c0.083-0.001,0.153,0.028,0.21,0.087
		s0.086,0.133,0.086,0.222c0,0.081-0.03,0.15-0.09,0.207c-0.081,0.075-0.279,0.147-0.593,0.216
		c-0.313,0.069-0.615,0.104-0.905,0.105c-0.499,0.002-0.898-0.138-1.198-0.419s-0.451-0.626-0.452-1.038
		c-0.002-0.438,0.159-0.795,0.481-1.07s0.695-0.414,1.116-0.416c0.254-0.001,0.486,0.044,0.698,0.132s0.37,0.185,0.474,0.287
		c0.146,0.149,0.268,0.334,0.363,0.555c0.066,0.154,0.099,0.333,0.1,0.535L102.37,66.135z M101.678,65.514
		c-0.096-0.179-0.221-0.311-0.376-0.398c-0.153-0.088-0.337-0.132-0.55-0.131c-0.211,0.001-0.394,0.046-0.548,0.135
		c-0.152,0.089-0.278,0.222-0.375,0.4L101.678,65.514z"/>
	<path fill="#191817" d="M104.845,64.43l0.007,2.138l0.748-0.002c0.15-0.001,0.257,0.027,0.322,0.085
		c0.063,0.058,0.096,0.133,0.096,0.226c0.001,0.092-0.031,0.166-0.095,0.225c-0.064,0.058-0.171,0.087-0.321,0.088l-2.119,0.007
		c-0.15,0-0.257-0.028-0.32-0.086c-0.064-0.058-0.096-0.133-0.097-0.227c0-0.091,0.031-0.165,0.096-0.224
		c0.063-0.058,0.169-0.087,0.319-0.087l0.748-0.003l-0.005-1.515l-0.502,0.002c-0.147,0.001-0.254-0.027-0.319-0.085
		c-0.064-0.059-0.098-0.134-0.098-0.227c0-0.092,0.031-0.166,0.095-0.224s0.171-0.087,0.32-0.088L104.845,64.43z M104.756,63.247
		l0.002,0.659l-0.742,0.003l-0.002-0.659L104.756,63.247z"/>
	<path fill="#191817" d="M107.642,64.421l0.001,0.21c0.112-0.099,0.238-0.172,0.375-0.221s0.285-0.074,0.445-0.074
		c0.368-0.001,0.659,0.112,0.875,0.341c0.172,0.182,0.257,0.42,0.258,0.717l0.004,1.158c0.132,0,0.229,0.027,0.293,0.085
		c0.063,0.059,0.094,0.134,0.094,0.227c0.001,0.092-0.03,0.166-0.095,0.224c-0.063,0.058-0.171,0.088-0.32,0.088l-0.563,0.002
		c-0.15,0.001-0.256-0.028-0.32-0.086c-0.063-0.058-0.096-0.133-0.097-0.227c0-0.091,0.032-0.165,0.095-0.224
		c0.062-0.058,0.158-0.086,0.29-0.087l-0.004-1.177c0-0.136-0.038-0.235-0.11-0.297c-0.095-0.081-0.237-0.122-0.428-0.121
		c-0.145,0-0.271,0.029-0.379,0.085c-0.108,0.057-0.245,0.175-0.411,0.356l0.004,1.158c0.16-0.001,0.264,0.014,0.311,0.044
		c0.1,0.061,0.149,0.149,0.149,0.267c0.001,0.092-0.03,0.166-0.095,0.224c-0.063,0.059-0.171,0.088-0.32,0.089l-0.709,0.002
		c-0.149,0-0.257-0.028-0.32-0.086c-0.064-0.058-0.096-0.133-0.097-0.227c0-0.113,0.049-0.201,0.145-0.265
		c0.049-0.03,0.153-0.046,0.313-0.046l-0.005-1.515c-0.132,0-0.229-0.028-0.292-0.087s-0.095-0.134-0.095-0.225
		c0-0.092,0.031-0.166,0.095-0.224s0.17-0.088,0.32-0.088L107.642,64.421z"/>
	<path fill="#191817" d="M112.578,67.165V67.02c-0.156,0.083-0.329,0.146-0.517,0.188c-0.188,0.042-0.359,0.063-0.514,0.063
		c-0.334,0.002-0.606-0.087-0.815-0.264c-0.21-0.176-0.314-0.372-0.315-0.587c-0.001-0.262,0.132-0.504,0.397-0.729
		c0.266-0.225,0.634-0.338,1.104-0.34c0.188-0.001,0.406,0.02,0.654,0.06v-0.149c0-0.093-0.041-0.169-0.121-0.229
		c-0.08-0.058-0.232-0.087-0.458-0.086c-0.185,0-0.424,0.038-0.718,0.111c-0.109,0.027-0.194,0.041-0.255,0.041
		c-0.083,0-0.153-0.029-0.212-0.089c-0.058-0.06-0.086-0.137-0.087-0.229c0-0.053,0.01-0.099,0.03-0.137
		c0.021-0.039,0.049-0.069,0.084-0.093c0.036-0.023,0.112-0.053,0.228-0.085c0.154-0.043,0.312-0.077,0.472-0.104
		c0.16-0.025,0.305-0.039,0.435-0.039c0.388-0.001,0.688,0.082,0.902,0.248c0.214,0.166,0.322,0.395,0.323,0.685l0.004,1.283
		l0.106-0.001c0.149,0,0.257,0.028,0.321,0.085c0.064,0.059,0.096,0.134,0.096,0.227c0.001,0.092-0.03,0.166-0.095,0.224
		c-0.063,0.058-0.171,0.088-0.32,0.088L112.578,67.165z M112.575,66.049c-0.251-0.047-0.48-0.071-0.691-0.07
		c-0.254,0.001-0.471,0.063-0.652,0.188c-0.114,0.08-0.17,0.16-0.17,0.241c0,0.059,0.027,0.105,0.082,0.143
		c0.103,0.065,0.241,0.1,0.418,0.099c0.149,0,0.319-0.03,0.508-0.09c0.189-0.06,0.358-0.141,0.507-0.242L112.575,66.049z"/>
	<path fill="#191817" d="M115.615,64.394l0.001,0.39c0.262-0.189,0.467-0.315,0.617-0.38c0.151-0.063,0.293-0.095,0.425-0.095
		c0.202-0.001,0.399,0.074,0.59,0.223c0.131,0.101,0.195,0.204,0.196,0.31c0,0.089-0.031,0.165-0.093,0.228
		c-0.061,0.062-0.135,0.093-0.223,0.093c-0.077,0.001-0.158-0.038-0.244-0.115c-0.085-0.076-0.161-0.114-0.228-0.114
		c-0.088,0-0.218,0.056-0.391,0.165c-0.173,0.11-0.389,0.276-0.647,0.495l0.003,0.939l0.888-0.003c0.15,0,0.257,0.028,0.322,0.085
		c0.063,0.059,0.096,0.134,0.096,0.227c0.001,0.092-0.031,0.166-0.095,0.224c-0.064,0.059-0.171,0.088-0.321,0.088l-1.882,0.007
		c-0.15,0-0.257-0.028-0.321-0.086c-0.063-0.058-0.096-0.133-0.097-0.227c0-0.091,0.032-0.165,0.096-0.224
		c0.063-0.058,0.17-0.087,0.32-0.087l0.371-0.001l-0.005-1.515h-0.226c-0.149,0.001-0.257-0.027-0.32-0.085
		c-0.064-0.058-0.097-0.133-0.097-0.226c0-0.092,0.031-0.166,0.095-0.225c0.063-0.058,0.171-0.087,0.32-0.088L115.615,64.394z"/>
	<path fill="#191817" d="M119.329,65.005l0.004,1.25c0.001,0.134,0.028,0.222,0.083,0.265c0.086,0.065,0.238,0.099,0.457,0.098
		c0.318-0.001,0.611-0.069,0.881-0.206c0.104-0.053,0.185-0.08,0.243-0.08c0.081,0,0.151,0.03,0.211,0.09
		c0.061,0.062,0.09,0.135,0.091,0.223c0,0.081-0.032,0.15-0.097,0.209c-0.099,0.097-0.295,0.185-0.588,0.266
		c-0.292,0.081-0.538,0.122-0.739,0.123c-0.387,0.001-0.679-0.082-0.872-0.248c-0.194-0.166-0.291-0.372-0.292-0.615l-0.005-1.371
		l-0.226,0.001c-0.149,0-0.257-0.027-0.32-0.085c-0.064-0.059-0.097-0.134-0.097-0.227c0-0.092,0.031-0.166,0.095-0.224
		s0.171-0.088,0.32-0.088l0.226-0.001l-0.002-0.563c0-0.15,0.027-0.257,0.085-0.32c0.059-0.065,0.134-0.098,0.227-0.098
		c0.092,0,0.166,0.031,0.224,0.096c0.058,0.063,0.088,0.17,0.088,0.32l0.002,0.563l1.152-0.004c0.15-0.001,0.257,0.028,0.32,0.086
		c0.065,0.058,0.098,0.132,0.098,0.226c0,0.091-0.031,0.166-0.096,0.225c-0.063,0.058-0.17,0.086-0.32,0.087L119.329,65.005z"/>
	<path fill="#191817" d="M124.787,66.06l-2.557,0.009c0.064,0.162,0.181,0.292,0.346,0.392c0.165,0.099,0.39,0.146,0.672,0.146
		c0.23,0,0.537-0.05,0.92-0.151c0.158-0.041,0.268-0.062,0.328-0.062c0.083,0,0.153,0.029,0.21,0.087
		c0.057,0.059,0.086,0.133,0.086,0.222c0,0.081-0.03,0.15-0.09,0.208c-0.081,0.075-0.279,0.146-0.593,0.216
		s-0.615,0.104-0.905,0.105c-0.499,0.001-0.898-0.138-1.198-0.419s-0.451-0.627-0.452-1.039c-0.002-0.438,0.159-0.794,0.481-1.069
		c0.322-0.276,0.695-0.415,1.116-0.416c0.254-0.001,0.486,0.043,0.698,0.131c0.212,0.089,0.37,0.185,0.474,0.288
		c0.146,0.148,0.268,0.334,0.363,0.555c0.066,0.153,0.099,0.332,0.1,0.534L124.787,66.06z M124.095,65.439
		c-0.096-0.179-0.221-0.312-0.376-0.398c-0.153-0.089-0.337-0.132-0.55-0.131c-0.211,0-0.394,0.045-0.548,0.135
		c-0.152,0.088-0.278,0.222-0.375,0.4L124.095,65.439z"/>
	<path fill="#191817" d="M126.951,64.979l0.005,1.515l0.888-0.003c0.149-0.001,0.257,0.027,0.321,0.085s0.096,0.133,0.096,0.226
		c0.001,0.092-0.03,0.166-0.095,0.225c-0.063,0.058-0.171,0.087-0.32,0.088l-1.883,0.006c-0.149,0.001-0.257-0.028-0.32-0.086
		c-0.063-0.057-0.096-0.132-0.097-0.226c0-0.091,0.032-0.165,0.096-0.225c0.063-0.058,0.17-0.086,0.319-0.087l0.371-0.001
		l-0.005-1.515l-0.298,0.001c-0.149,0-0.257-0.027-0.32-0.085c-0.064-0.059-0.097-0.134-0.097-0.227
		c0-0.092,0.031-0.166,0.095-0.224s0.171-0.088,0.32-0.088l0.298-0.001l-0.001-0.237c-0.001-0.271,0.102-0.497,0.304-0.678
		c0.203-0.18,0.498-0.271,0.886-0.271c0.172-0.001,0.371,0.015,0.598,0.045c0.226,0.03,0.37,0.074,0.436,0.131
		c0.063,0.057,0.096,0.129,0.096,0.219c0.001,0.095-0.027,0.173-0.084,0.232c-0.057,0.061-0.127,0.091-0.21,0.091
		c-0.039,0-0.097-0.007-0.174-0.021c-0.257-0.05-0.485-0.075-0.684-0.074c-0.207,0.001-0.35,0.032-0.428,0.094
		c-0.077,0.063-0.115,0.14-0.115,0.23l0.001,0.237l0.96-0.003c0.15-0.001,0.258,0.028,0.321,0.085
		c0.064,0.058,0.097,0.133,0.097,0.227c0,0.091-0.031,0.165-0.095,0.224s-0.171,0.087-0.321,0.088L126.951,64.979z"/>
	<path fill="#191817" d="M131.26,67.103v-0.146c-0.156,0.084-0.329,0.146-0.517,0.188c-0.188,0.043-0.359,0.063-0.514,0.064
		c-0.334,0.001-0.606-0.087-0.815-0.265c-0.21-0.176-0.314-0.371-0.315-0.586c-0.001-0.262,0.132-0.505,0.397-0.73
		c0.266-0.225,0.634-0.338,1.104-0.34c0.188,0,0.406,0.02,0.654,0.06v-0.149c0-0.093-0.041-0.169-0.121-0.228
		s-0.232-0.088-0.458-0.087c-0.185,0.001-0.424,0.039-0.718,0.112c-0.109,0.026-0.194,0.04-0.255,0.04
		c-0.083,0.001-0.153-0.029-0.212-0.089c-0.058-0.06-0.086-0.137-0.087-0.229c0-0.053,0.01-0.099,0.03-0.137
		c0.021-0.039,0.049-0.069,0.084-0.093c0.036-0.023,0.112-0.052,0.228-0.085c0.154-0.042,0.312-0.077,0.472-0.103
		c0.16-0.026,0.305-0.039,0.435-0.04c0.388-0.001,0.688,0.082,0.902,0.248c0.214,0.166,0.322,0.395,0.323,0.685l0.004,1.283h0.106
		c0.149-0.001,0.257,0.027,0.321,0.085s0.096,0.133,0.096,0.226c0.001,0.092-0.03,0.166-0.095,0.225
		c-0.063,0.058-0.171,0.087-0.32,0.088L131.26,67.103z M131.257,65.986c-0.251-0.047-0.48-0.07-0.691-0.069
		c-0.254,0-0.471,0.063-0.652,0.188c-0.114,0.079-0.17,0.159-0.17,0.24c0,0.059,0.027,0.105,0.082,0.143
		c0.103,0.066,0.241,0.1,0.418,0.1c0.149-0.001,0.319-0.03,0.508-0.091c0.189-0.06,0.358-0.14,0.507-0.242L131.257,65.986z"/>
	<path fill="#191817" d="M133.92,66.057l0.003,1.037l-0.73,0.003c-0.149,0-0.257-0.029-0.32-0.086
		c-0.063-0.058-0.096-0.133-0.097-0.227c0-0.091,0.032-0.165,0.097-0.224s0.171-0.087,0.318-0.087l0.106-0.001l-0.009-2.697
		l-0.106,0.001c-0.149,0-0.257-0.028-0.32-0.086s-0.097-0.133-0.097-0.227c0-0.091,0.031-0.165,0.095-0.223
		c0.063-0.06,0.171-0.088,0.32-0.088l0.73-0.003l0.007,2.101l0.485-0.394c-0.051-0.087-0.077-0.157-0.077-0.212
		c0-0.094,0.031-0.169,0.093-0.228c0.063-0.058,0.17-0.087,0.319-0.088l0.712-0.002c0.149-0.001,0.257,0.028,0.32,0.086
		c0.065,0.058,0.097,0.132,0.097,0.226c0,0.091-0.03,0.166-0.095,0.225c-0.063,0.058-0.171,0.086-0.32,0.087h-0.174l-0.755,0.617
		l1.021,0.897l0.183-0.001c0.15-0.001,0.257,0.027,0.321,0.085c0.064,0.059,0.097,0.133,0.097,0.227
		c0.001,0.092-0.031,0.166-0.096,0.224c-0.063,0.058-0.17,0.087-0.32,0.088l-0.718,0.002c-0.149,0.001-0.257-0.028-0.32-0.086
		c-0.064-0.057-0.096-0.132-0.097-0.226c0-0.079,0.034-0.157,0.104-0.234l-0.662-0.581L133.92,66.057z"/>
	<path fill="#191817" d="M138.011,64.942l0.004,1.25c0.001,0.134,0.028,0.222,0.083,0.265c0.086,0.066,0.238,0.099,0.457,0.098
		c0.318-0.001,0.611-0.069,0.881-0.206c0.104-0.053,0.185-0.079,0.243-0.08c0.081,0,0.151,0.03,0.211,0.091
		c0.061,0.062,0.09,0.134,0.091,0.222c0,0.081-0.032,0.151-0.097,0.21c-0.099,0.096-0.295,0.185-0.588,0.266
		c-0.292,0.081-0.538,0.122-0.739,0.122c-0.387,0.002-0.679-0.081-0.872-0.248c-0.194-0.166-0.291-0.372-0.292-0.615l-0.005-1.371
		l-0.226,0.001c-0.149,0.001-0.257-0.027-0.32-0.085c-0.064-0.059-0.097-0.134-0.097-0.227c0-0.092,0.031-0.166,0.095-0.224
		s0.171-0.087,0.32-0.088l0.226-0.001l-0.002-0.563c0-0.15,0.027-0.257,0.085-0.32c0.059-0.064,0.134-0.098,0.227-0.098
		c0.092,0,0.166,0.032,0.224,0.096s0.088,0.17,0.088,0.32l0.002,0.563l1.152-0.004c0.15,0,0.257,0.028,0.32,0.086
		c0.065,0.058,0.098,0.133,0.098,0.227c0,0.091-0.031,0.165-0.096,0.224c-0.063,0.058-0.17,0.087-0.32,0.087L138.011,64.942z"/>
	<path fill="#191817" d="M143.469,65.998l-2.557,0.008c0.064,0.162,0.181,0.293,0.346,0.392c0.165,0.1,0.39,0.147,0.672,0.146
		c0.23-0.001,0.537-0.051,0.92-0.151c0.158-0.042,0.268-0.062,0.328-0.062c0.083-0.001,0.153,0.028,0.21,0.087
		s0.086,0.133,0.086,0.222c0,0.081-0.03,0.15-0.09,0.207c-0.081,0.075-0.279,0.147-0.593,0.216
		c-0.313,0.069-0.615,0.104-0.905,0.105c-0.499,0.002-0.898-0.138-1.198-0.419s-0.451-0.626-0.452-1.038
		c-0.002-0.438,0.159-0.795,0.481-1.07s0.695-0.414,1.116-0.416c0.254-0.001,0.486,0.043,0.698,0.132
		c0.212,0.088,0.37,0.184,0.474,0.287c0.146,0.149,0.268,0.334,0.363,0.555c0.066,0.154,0.099,0.333,0.1,0.535L143.469,65.998z
		 M142.776,65.377c-0.096-0.179-0.221-0.311-0.376-0.398c-0.153-0.088-0.337-0.132-0.55-0.131c-0.211,0.001-0.394,0.045-0.548,0.135
		c-0.152,0.088-0.278,0.222-0.375,0.4L142.776,65.377z"/>
	<path fill="#191817" d="M145.004,64.296l0.001,0.21c0.112-0.098,0.238-0.172,0.375-0.22c0.137-0.049,0.285-0.074,0.445-0.075
		c0.369-0.001,0.66,0.112,0.876,0.341c0.172,0.183,0.257,0.421,0.258,0.718l0.004,1.158c0.132-0.001,0.229,0.027,0.293,0.085
		c0.063,0.058,0.094,0.133,0.094,0.226c0.001,0.092-0.03,0.166-0.095,0.225c-0.063,0.058-0.171,0.087-0.32,0.088l-0.563,0.002
		c-0.15,0-0.257-0.028-0.321-0.086c-0.063-0.058-0.096-0.133-0.097-0.227c0-0.091,0.032-0.165,0.095-0.224
		c0.062-0.058,0.159-0.087,0.291-0.087l-0.004-1.177c0-0.136-0.038-0.235-0.11-0.298c-0.096-0.081-0.238-0.121-0.429-0.12
		c-0.145,0-0.271,0.028-0.379,0.085c-0.108,0.056-0.245,0.175-0.411,0.355l0.004,1.158c0.16,0,0.264,0.014,0.311,0.044
		c0.1,0.062,0.149,0.15,0.149,0.268c0.001,0.092-0.03,0.166-0.095,0.224c-0.063,0.058-0.171,0.088-0.32,0.088l-0.709,0.003
		c-0.149,0-0.257-0.029-0.32-0.086c-0.064-0.058-0.096-0.133-0.097-0.227c0-0.113,0.049-0.201,0.145-0.266
		c0.049-0.03,0.153-0.045,0.313-0.046l-0.005-1.515c-0.132,0.001-0.229-0.028-0.292-0.087c-0.063-0.058-0.095-0.133-0.095-0.224
		c0-0.092,0.031-0.166,0.095-0.225c0.063-0.058,0.17-0.087,0.32-0.088L145.004,64.296z"/>
</g>
</svg>
